<?xml version="1.0" encoding="UTF-8"?>
<svg id="Calque_1" data-name="Calque 1" xmlns="http://www.w3.org/2000/svg" viewBox="0 0 80 80">
  <defs>
    <style>
      .cls-1, .cls-2 {
        stroke-width: 0px;
      }

      .cls-2 {
        fill: #ff7b7b;
      }
    </style>
  </defs>
  <path class="cls-2" d="M39.64,78.86C18.19,78.86.73,61.38.73,39.89S18.19.93,39.64.93s38.9,17.48,38.9,38.96-17.45,38.96-38.9,38.96Z"/>
  <path class="cls-1" d="M39.64,1.43c21.18,0,38.4,17.25,38.4,38.46s-17.23,38.46-38.4,38.46S1.23,61.1,1.23,39.89,18.46,1.43,39.64,1.43M39.64.43C17.88.43.23,18.1.23,39.89s17.64,39.46,39.4,39.46,39.4-17.67,39.4-39.46S61.4.43,39.64.43h0Z"/>
</svg>